<?xml version="1.0" encoding="utf-8"?>

<!DOCTYPE svg PUBLIC "-//W3C//DTD SVG 1.1//EN" "http://www.w3.org/Graphics/SVG/1.1/DTD/svg11.dtd">
<!-- Uploaded to: SVG Repo, www.svgrepo.com, Generator: SVG Repo Mixer Tools -->
<svg fill="#6B7280" height="800px" width="800px" version="1.1" id="_x32_" xmlns="http://www.w3.org/2000/svg" xmlns:xlink="http://www.w3.org/1999/xlink" 
	 viewBox="0 0 512 512"  xml:space="preserve">
<style type="text/css">
	
</style>
<g>
	<path class="st0" d="M491.503,254.652c-29.484-18.019-141.453-84.077-205.852-108.103c-46.85-17.478-52.631-3.482-60.607,18.02
		c-3.845,10.374-7.956,18.224-13.123,24.568c-16.903,20.748-44.2,26.206-90.064,26.206c-43.717,0-57.025-25.46-69.335-40.948
		c-9.826-12.364-28.618-9.31-34.394,1.639c-31.123,58.961-15.264,124.483-3.251,145.774h488.089
		C512.793,308.704,520.981,272.672,491.503,254.652z"/>
	<polygon class="st0" points="450.871,330.767 428.762,330.767 378.199,330.767 356.09,330.767 305.528,330.767 283.418,330.767 
		232.855,330.767 210.752,330.767 160.19,330.767 138.08,330.767 87.524,330.767 65.414,330.767 16.834,330.767 14.852,330.767 
		14.852,373.348 65.414,373.348 65.414,358.711 87.524,358.711 87.524,373.348 138.08,373.348 138.08,358.711 160.19,358.711 
		160.19,373.348 210.752,373.348 210.752,358.711 232.855,358.711 232.855,373.348 283.418,373.348 283.418,358.711 
		305.528,358.711 305.528,373.348 356.09,373.348 356.09,358.711 378.199,358.711 378.199,373.348 428.762,373.348 428.762,358.711 
		450.871,358.711 450.871,373.348 501.428,373.348 501.428,330.767 481.426,330.767 	"/>
</g>
</svg>